<?xml version="1.0" encoding="utf-8"?>
<!-- Generator: Adobe Illustrator 19.2.0, SVG Export Plug-In . SVG Version: 6.00 Build 0)  -->
<svg version="1.1" id="Calque_1" xmlns="http://www.w3.org/2000/svg" xmlns:xlink="http://www.w3.org/1999/xlink" x="0px" y="0px"
	 viewBox="0 0 300 300" style="enable-background:new 0 0 300 300;" xml:space="preserve">
<style type="text/css">
	.st0{fill:#EC643E;}
	.st1{fill:#FFFFFF;}
</style>
<g>
	<g>
		<g>
			<path class="st0" d="M234.3,223.5c0.8,0,1.4-0.6,1.4-1.4c0-0.8-0.6-1.4-1.4-1.4h-7.9c-1.9,0-3.6,1.1-4.3,2.7L234.3,223.5z
				 M234.4,216.3c3.1,0,5.7,2.5,5.7,5.7c0,3.1-2.5,5.7-5.7,5.7h-11.8c0.8,1.5,2.1,2.4,3.9,2.4l10,0v4.8h-9.8c-5.1,0-9.2-4.2-9.2-9.3
				c0-5.1,4.1-9.3,9.2-9.3H234.4z"/>
		</g>
		<g>
			<path class="st0" d="M208.9,229.9v-8.7h-10.8c-2.4,0-4.4,2-4.4,4.4c0,2.4,2,4.4,4.4,4.4H208.9z M188.8,225.5
				c0-5.1,4.2-9.3,9.3-9.3h15.7v20.2c0,3.6-3,6.6-6.6,6.6h-7.5v-4.9l7.5,0c0.9,0,1.7-0.7,1.7-1.7v-1.7l-10.8,0
				C192.9,234.8,188.8,230.7,188.8,225.5z"/>
		</g>
		<g>
			<path class="st0" d="M85.4,229.9c2.4,0,4.4-2,4.4-4.4c0-2.4-2-4.4-4.4-4.4h-6.6c-2.4,0-4.4,2-4.4,4.4c0,2.4,2,4.4,4.4,4.4
				L85.4,229.9z M85.4,216.3c5.1,0,9.3,4.2,9.3,9.3c0,5.1-4.1,9.3-9.3,9.3h-6.7c-5.1,0-9.3-4.2-9.3-9.3c0-5.1,4.2-9.3,9.3-9.3H85.4z
				"/>
		</g>
		<g>
			<path class="st0" d="M140.5,234.8h17v-9.3c0-5.1-4.2-9.3-9.3-9.3h-7.7v4.8l7.9,0c1.7,0,3.3,1,4,2.4h-12c-3.1,0-5.7,2.5-5.7,5.7
				C134.8,232.3,137.4,234.8,140.5,234.8z M140.3,227.6h12.5v2.7l-12.5,0c-0.8,0-1.4-0.6-1.4-1.4
				C138.9,228.2,139.5,227.6,140.3,227.6z"/>
		</g>
		<g>
			<g>
				<polygon class="st0" points="126.3,210.2 131.2,210.2 131.2,234.8 126.3,234.8 126.3,210.2 				"/>
				<path class="st0" d="M128.8,222.5"/>
			</g>
		</g>
		<g>
			<path class="st0" d="M175.9,216.3h-13.5v18.6h4.9v-13.7l8.6,0c2.4,0,4.4,1.9,4.4,4.4v9.3h4.9v-9.3
				C185.2,220.4,181,216.3,175.9,216.3z"/>
		</g>
		<g>
			<path class="st0" d="M252.2,216.3l-1,0.1c-4.7,0.5-8.3,4.4-8.3,9.2v9.3h4.9v-9.3c0-2.4,1.9-4.4,4.4-4.4h6.9v-4.9H252.2z"/>
		</g>
		<g>
			<path class="st0" d="M121.1,216.3h-4.9v13.6l-8.6,0c-2.4,0-4.4-2-4.4-4.4v-9.3h-4.9v9.3c0,5.1,4.2,9.3,9.3,9.3h13.5V216.3z"/>
		</g>
		<g>
			<path class="st0" d="M57.3,229.9c2.4,0,4.4-2,4.4-4.4c0-2.4-2-4.4-4.4-4.4H45.8v8.7H57.3z M57.3,216.3c5.2,0,9.3,4.2,9.3,9.3
				c0,5.1-4.1,9.3-9.2,9.3h-7.2c-5.1,0-9.2-4.2-9.3-9.2v-5v-10.4h4.9v6.1H57.3z"/>
		</g>
	</g>
	<g>
		<g>
			<path class="st0" d="M255.8,127.4c0-39-32-70.5-70.8-70.5h-70.2c-38.9,0-70.5,31.6-70.5,70.5c0,38.9,31.6,70.5,70.5,70.5h70.4
				C224,197.9,255.8,166.4,255.8,127.4z"/>
		</g>
		<g>
			<path class="st1" d="M171.4,153.9c11.8,0,21.5-9.6,21.5-21.5c0-11.8-9.6-21.5-21.5-21.5h-56.5v42.9H171.4z M114.9,56.9v29.9h56.5
				c25.4,0.1,45.7,20.5,45.7,45.7c0,25.1-20.3,45.6-45.4,45.7h-35.3c-25,0-45.3-20.6-45.7-45.4l0-35.4
				C90.6,79.8,100.4,64.6,114.9,56.9z"/>
		</g>
	</g>
</g>
</svg>
