<?xml version="1.0" encoding="utf-8"?>
<!-- Generator: Adobe Illustrator 19.2.0, SVG Export Plug-In . SVG Version: 6.00 Build 0)  -->
<svg version="1.1" id="Layer_1" xmlns="http://www.w3.org/2000/svg" xmlns:xlink="http://www.w3.org/1999/xlink" x="0px" y="0px"
	 viewBox="0 0 198.4 198.4" style="enable-background:new 0 0 198.4 198.4;" xml:space="preserve">
<style type="text/css">
	.st0{fill:#7BB51C;}
</style>
<g>
	<polygon class="st0" points="36,137.1 161.6,137.1 99.2,74.6 	"/>
	<polygon points="33.6,134 43.4,124.5 40.2,121.1 34,127.1 23.2,116 19.5,119.6 	"/>
	<polygon points="45.6,122.3 55.6,112.5 52.8,109.7 46.5,115.9 43.4,112.8 48.5,107.8 45.6,104.8 40.5,109.8 37.9,107.1 44.1,101.1 
		41.3,98.3 31.3,108 	"/>
	<path d="M78.4,75.9c-4-4.1-11.1-3.6-14.4-0.4c-3.4,3.3-5.1,9.9-0.3,14.8c5.2,5.4,11.5,3.4,14.9,0.1C83.5,85.6,81.7,79.3,78.4,75.9z
		 M75.4,87.6c-2.2,2.2-5,1.6-8.1-1.6c-2.6-2.7-2.5-5.4-0.6-7.3c1.3-1.3,4-2.4,7.2,0.8C77.5,83.3,77.6,85.4,75.4,87.6z"/>
	<polygon points="89.7,79.3 93.4,75.7 87.8,70 84.5,56.2 80.2,60.3 82.4,68.2 75,65.4 71,69.3 83.7,73.4 	"/>
	<path d="M69.9,98.6c0,0-9-3.1-9.4-3c-0.1,0,1.9-5.5-2.7-7.9c0,0-3.5-1.9-6.9,1.3l-7.4,7.3l14.2,14.3l3.8-3.7L53.8,99l12.4,3.3
		L69.9,98.6z M56,96.6c-2.1,2-2.4,2.2-2.4,2.2s-3.3-3.4-3.4-3.5c-0.1-0.1,2.3-2.2,2.7-2.6c0.2-0.2,1.7-1.2,3,0.1
		C55.9,92.9,58.1,94.6,56,96.6z"/>
	<polygon points="88.5,58.9 85.2,55.6 99.6,41.4 104.3,46.1 99.1,56.3 109.6,51.5 114.2,56.1 99.8,70.3 96.3,66.8 103.9,59.3 
		93.6,64 91.4,61.8 96.2,51.5 	"/>
	<polygon points="113.4,84 103.5,74 117.8,59.8 127.8,69.8 124.9,72.7 118.7,66.4 116.3,68.7 121.3,73.7 118.2,76.7 113.3,71.7 
		110.2,74.8 116.4,81.1 	"/>
	<polygon points="146.2,88.4 149.9,92.1 139.1,102.9 145.2,109 141.7,112.5 131.9,102.6 	"/>
	<polygon points="144.2,115.1 158.6,100.9 162.2,104.5 147.9,118.7 	"/>
	<polygon points="154.4,125.3 151,121.9 165.4,107.7 170.3,112.6 166.1,127.4 175.6,118 178.9,121.3 164.5,135.5 160.2,131.2 
		163.9,115.7 	"/>
	<path d="M139.8,81.9l-8.7-8.8l-14.4,14.2l3.7,3.7l7.8-7.8l-2.8,12.8l3.8,3.8c0,0,3-9.2,3.1-9.6c0,0,3.2,1.8,6.8-1.3
		C139,89.1,142.4,85.7,139.8,81.9z M134.4,86c0,0-1.8,1.2-3.4-0.4l-2.5-2.7c0,0,3-3,3.4-3.4c0,0,2.3,2.4,2.6,2.7
		C134.8,82.5,136.7,83.9,134.4,86z"/>
</g>
</svg>
